<svg xmlns="http://www.w3.org/2000/svg" width="256" height="256" viewBox="0 0 100 100"><rect width="100" height="100" rx="20" fill="#7d6ee7"></rect><path fill="#fff" d="M10.49 53.69L9.68 51.30L4.86 51.30Q4.73 51.66 4.59 52.08Q4.44 52.50 4.31 52.91Q4.17 53.31 4.05 53.66Q3.92 54.01 3.85 54.25L3.85 54.25Q3.60 54.36 3.25 54.36L3.25 54.36Q2.97 54.36 2.74 54.20Q2.52 54.05 2.52 53.71L2.52 53.71Q2.52 53.55 2.57 53.37Q2.62 53.20 2.70 53.01L2.70 53.01Q2.97 52.25 3.39 51.06Q3.81 49.87 4.31 48.53Q4.80 47.19 5.32 45.83Q5.83 44.47 6.26 43.39L6.26 43.39Q6.40 43.32 6.69 43.25Q6.98 43.18 7.29 43.18L7.29 43.18Q7.65 43.18 7.98 43.29Q8.31 43.39 8.40 43.65L8.40 43.65Q8.83 44.69 9.33 46.03Q9.82 47.37 10.33 48.78Q10.83 50.18 11.29 51.54Q11.75 52.90 12.11 54.00L12.11 54.00Q11.97 54.16 11.77 54.26Q11.57 54.36 11.32 54.36L11.32 54.36Q10.98 54.36 10.80 54.20Q10.62 54.05 10.49 53.69L10.49 53.69ZM7.34 44.40L7.27 44.40Q7.07 44.94 6.82 45.63Q6.57 46.33 6.30 47.08Q6.03 47.84 5.76 48.61Q5.49 49.39 5.25 50.09L5.25 50.09L9.30 50.09Q9.03 49.28 8.74 48.46Q8.46 47.64 8.20 46.89Q7.93 46.13 7.71 45.49Q7.48 44.85 7.34 44.40L7.34 44.40ZM17.83 46.87L17.83 46.87Q17.22 46.87 16.70 47.07Q16.18 47.28 15.80 47.69Q15.42 48.09 15.21 48.69Q14.99 49.30 14.99 50.07L14.99 50.07Q14.99 51.62 15.76 52.44Q16.54 53.26 17.83 53.26L17.83 53.26Q18.59 53.26 19.09 53.05Q19.60 52.84 19.99 52.57L19.99 52.57Q20.19 52.68 20.32 52.84Q20.44 53.01 20.44 53.24L20.44 53.24Q20.44 53.49 20.25 53.71Q20.05 53.92 19.70 54.09Q19.35 54.25 18.87 54.35Q18.39 54.45 17.83 54.45L17.83 54.45Q16.90 54.45 16.11 54.18Q15.31 53.91 14.74 53.37Q14.16 52.83 13.84 52.01Q13.51 51.19 13.51 50.07L13.51 50.07Q13.51 48.97 13.86 48.15Q14.20 47.34 14.77 46.78Q15.35 46.22 16.13 45.94Q16.92 45.66 17.80 45.66L17.80 45.66Q18.36 45.66 18.83 45.76Q19.31 45.86 19.65 46.04Q19.99 46.22 20.18 46.44Q20.37 46.67 20.37 46.90L20.37 46.90Q20.37 47.12 20.25 47.28Q20.12 47.44 19.92 47.53L19.92 47.53Q19.53 47.26 19.06 47.07Q18.59 46.87 17.83 46.87ZM26.44 46.87L26.44 46.87Q25.83 46.87 25.30 47.07Q24.78 47.28 24.40 47.69Q24.03 48.09 23.81 48.69Q23.59 49.30 23.59 50.07L23.59 50.07Q23.59 51.62 24.37 52.44Q25.14 53.26 26.44 53.26L26.44 53.26Q27.19 53.26 27.70 53.05Q28.20 52.84 28.60 52.57L28.60 52.57Q28.80 52.68 28.92 52.84Q29.05 53.01 29.05 53.24L29.05 53.24Q29.05 53.49 28.85 53.71Q28.65 53.92 28.30 54.09Q27.95 54.25 27.47 54.35Q27.00 54.45 26.44 54.45L26.44 54.45Q25.50 54.45 24.71 54.18Q23.92 53.91 23.34 53.37Q22.77 52.83 22.44 52.01Q22.12 51.19 22.12 50.07L22.12 50.07Q22.12 48.97 22.46 48.15Q22.80 47.34 23.38 46.78Q23.95 46.22 24.74 45.94Q25.52 45.66 26.40 45.66L26.40 45.66Q26.96 45.66 27.44 45.76Q27.91 45.86 28.26 46.04Q28.60 46.22 28.79 46.44Q28.98 46.67 28.98 46.90L28.98 46.90Q28.98 47.12 28.85 47.28Q28.72 47.44 28.53 47.53L28.53 47.53Q28.13 47.26 27.66 47.07Q27.19 46.87 26.44 46.87ZM37.76 50.13L32.22 50.90Q32.70 53.26 35.31 53.26L35.31 53.26Q36.07 53.26 36.68 53.01Q37.29 52.75 37.65 52.47L37.65 52.47Q38.08 52.72 38.08 53.15L38.08 53.15Q38.08 53.40 37.86 53.64Q37.63 53.87 37.25 54.05Q36.86 54.23 36.35 54.34Q35.83 54.45 35.24 54.45L35.24 54.45Q33.15 54.45 31.94 53.31Q30.72 52.18 30.72 50.00L30.72 50.00Q30.72 48.97 31.02 48.17Q31.32 47.37 31.85 46.81Q32.38 46.26 33.12 45.96Q33.85 45.66 34.72 45.66L34.72 45.66Q35.53 45.66 36.21 45.93Q36.90 46.20 37.39 46.70Q37.89 47.19 38.17 47.87Q38.44 48.54 38.44 49.35L38.44 49.35Q38.44 49.75 38.26 49.92Q38.08 50.09 37.76 50.13L37.76 50.13ZM34.70 46.83L34.70 46.83Q33.60 46.83 32.88 47.60Q32.16 48.36 32.13 49.78L32.13 49.78L37.08 49.10Q36.99 48.11 36.38 47.47Q35.78 46.83 34.70 46.83ZM46.40 52.00L46.40 52.00Q46.40 53.15 45.55 53.80Q44.71 54.45 43.11 54.45L43.11 54.45Q42.42 54.45 41.85 54.33Q41.27 54.21 40.87 54.02Q40.46 53.83 40.24 53.59Q40.01 53.35 40.01 53.10L40.01 53.10Q40.01 52.88 40.13 52.68Q40.24 52.48 40.48 52.34L40.48 52.34Q40.96 52.70 41.61 52.98Q42.26 53.26 43.09 53.26L43.09 53.26Q44.96 53.26 44.96 52.00L44.96 52.00Q44.96 50.97 43.72 50.67L43.72 50.67L42.22 50.27Q41.13 49.98 40.62 49.43Q40.12 48.88 40.12 48.02L40.12 48.02Q40.12 47.55 40.31 47.12Q40.50 46.69 40.89 46.36Q41.29 46.04 41.87 45.85Q42.46 45.66 43.25 45.66L43.25 45.66Q44.51 45.66 45.28 46.03Q46.06 46.40 46.06 46.89L46.06 46.89Q46.06 47.12 45.94 47.30Q45.82 47.48 45.63 47.57L45.63 47.57Q45.30 47.35 44.71 47.10Q44.11 46.85 43.30 46.85L43.30 46.85Q42.49 46.85 42.02 47.16Q41.54 47.46 41.54 48.02L41.54 48.02Q41.54 48.43 41.81 48.72Q42.08 49.01 42.71 49.15L42.71 49.15L43.95 49.46Q45.18 49.77 45.79 50.37Q46.40 50.97 46.40 52.00ZM54.45 52.00L54.45 52.00Q54.45 53.15 53.60 53.80Q52.75 54.45 51.15 54.45L51.15 54.45Q50.47 54.45 49.89 54.33Q49.32 54.21 48.91 54.02Q48.51 53.83 48.28 53.59Q48.06 53.35 48.06 53.10L48.06 53.10Q48.06 52.88 48.17 52.68Q48.29 52.48 48.52 52.34L48.52 52.34Q49.01 52.70 49.66 52.98Q50.31 53.26 51.13 53.26L51.13 53.26Q53.01 53.26 53.01 52.00L53.01 52.00Q53.01 50.97 51.76 50.67L51.76 50.67L50.27 50.27Q49.17 49.98 48.67 49.43Q48.16 48.88 48.16 48.02L48.16 48.02Q48.16 47.55 48.35 47.12Q48.54 46.69 48.94 46.36Q49.33 46.04 49.92 45.85Q50.50 45.66 51.30 45.66L51.30 45.66Q52.56 45.66 53.33 46.03Q54.10 46.40 54.10 46.89L54.10 46.89Q54.10 47.12 53.99 47.30Q53.87 47.48 53.67 47.57L53.67 47.57Q53.35 47.35 52.75 47.10Q52.16 46.85 51.35 46.85L51.35 46.85Q50.54 46.85 50.06 47.16Q49.59 47.46 49.59 48.02L49.59 48.02Q49.59 48.43 49.86 48.72Q50.13 49.01 50.76 49.15L50.76 49.15L52.00 49.46Q53.22 49.77 53.83 50.37Q54.45 50.97 54.45 52.00ZM58.15 46.47L58.15 54.18Q58.06 54.21 57.88 54.26Q57.70 54.30 57.49 54.30L57.49 54.30Q56.71 54.30 56.71 53.65L56.71 53.65L56.71 45.93Q56.80 45.90 56.99 45.85Q57.18 45.81 57.40 45.81L57.40 45.81Q58.15 45.81 58.15 46.47L58.15 46.47ZM56.50 43.27L56.50 43.27Q56.50 42.89 56.76 42.63Q57.02 42.37 57.43 42.37L57.43 42.37Q57.85 42.37 58.10 42.63Q58.35 42.89 58.35 43.27L58.35 43.27Q58.35 43.65 58.10 43.91Q57.85 44.17 57.43 44.17L57.43 44.17Q57.02 44.17 56.76 43.91Q56.50 43.65 56.50 43.27ZM64.67 45.66L64.67 45.66Q65.50 45.66 66.22 45.93Q66.94 46.20 67.47 46.74Q68.00 47.28 68.30 48.11Q68.59 48.94 68.59 50.05L68.59 50.05Q68.59 51.19 68.29 52.02Q67.98 52.84 67.43 53.38Q66.88 53.92 66.11 54.18Q65.34 54.45 64.42 54.45L64.42 54.45Q63.54 54.45 62.83 54.24Q62.11 54.03 61.66 53.76L61.66 53.76Q61.29 53.53 61.14 53.30Q61.00 53.08 61.00 52.70L61.00 52.70L61.00 42.55Q61.09 42.51 61.28 42.47Q61.47 42.42 61.68 42.42L61.68 42.42Q62.44 42.42 62.44 43.07L62.44 43.07L62.44 46.29Q62.83 46.04 63.38 45.85Q63.93 45.66 64.67 45.66ZM64.45 46.85L64.45 46.85Q63.82 46.85 63.31 47.07Q62.80 47.30 62.44 47.61L62.44 47.61L62.44 52.70Q62.71 52.90 63.22 53.08Q63.73 53.26 64.42 53.26L64.42 53.26Q65.03 53.26 65.53 53.07Q66.02 52.88 66.38 52.48Q66.74 52.09 66.94 51.48Q67.14 50.88 67.14 50.05L67.14 50.05Q67.14 49.23 66.94 48.61Q66.74 48.00 66.38 47.61Q66.02 47.23 65.53 47.04Q65.03 46.85 64.45 46.85ZM72.37 46.47L72.37 54.18Q72.28 54.21 72.10 54.26Q71.92 54.30 71.71 54.30L71.71 54.30Q70.93 54.30 70.93 53.65L70.93 53.65L70.93 45.93Q71.02 45.90 71.21 45.85Q71.40 45.81 71.62 45.81L71.62 45.81Q72.37 45.81 72.37 46.47L72.37 46.47ZM70.72 43.27L70.72 43.27Q70.72 42.89 70.98 42.63Q71.24 42.37 71.65 42.37L71.65 42.37Q72.07 42.37 72.32 42.63Q72.57 42.89 72.57 43.27L72.57 43.27Q72.57 43.65 72.32 43.91Q72.07 44.17 71.65 44.17L71.65 44.17Q71.24 44.17 70.98 43.91Q70.72 43.65 70.72 43.27ZM76.77 54.18L76.77 54.18Q76.68 54.21 76.50 54.26Q76.32 54.30 76.10 54.30L76.10 54.30Q75.33 54.30 75.33 53.65L75.33 53.65L75.33 42.55Q75.42 42.51 75.61 42.47Q75.79 42.42 75.99 42.42L75.99 42.42Q76.77 42.42 76.77 43.07L76.77 43.07L76.77 54.18ZM81.14 46.47L81.14 54.18Q81.05 54.21 80.87 54.26Q80.69 54.30 80.47 54.30L80.47 54.30Q79.70 54.30 79.70 53.65L79.70 53.65L79.70 45.93Q79.79 45.90 79.98 45.85Q80.17 45.81 80.38 45.81L80.38 45.81Q81.14 45.81 81.14 46.47L81.14 46.47ZM79.48 43.27L79.48 43.27Q79.48 42.89 79.75 42.63Q80.01 42.37 80.42 42.37L80.42 42.37Q80.83 42.37 81.09 42.63Q81.34 42.89 81.34 43.27L81.34 43.27Q81.34 43.65 81.09 43.91Q80.83 44.17 80.42 44.17L80.42 44.17Q80.01 44.17 79.75 43.91Q79.48 43.65 79.48 43.27ZM86.79 54.45L86.79 54.45Q85.53 54.45 84.75 53.89Q83.97 53.33 83.97 52.03L83.97 52.03L83.97 43.48Q84.06 43.45 84.25 43.40Q84.43 43.36 84.65 43.36L84.65 43.36Q85.41 43.36 85.41 44.01L85.41 44.01L85.41 46.08L88.36 46.08Q88.41 46.17 88.47 46.32Q88.52 46.47 88.52 46.65L88.52 46.65Q88.52 47.26 87.98 47.26L87.98 47.26L85.41 47.26L85.41 51.94Q85.41 52.66 85.81 52.96Q86.22 53.26 86.95 53.26L86.95 53.26Q87.26 53.26 87.64 53.15Q88.02 53.04 88.27 52.90L88.27 52.90Q88.38 53.01 88.47 53.17Q88.56 53.33 88.56 53.55L88.56 53.55Q88.56 53.94 88.09 54.19Q87.62 54.45 86.79 54.45ZM92.34 52.36L92.34 52.36Q92.10 51.93 91.80 51.26Q91.49 50.59 91.16 49.77Q90.82 48.94 90.48 48.01Q90.14 47.08 89.83 46.13L89.83 46.13Q89.96 45.95 90.17 45.84Q90.37 45.73 90.61 45.73L90.61 45.73Q90.91 45.73 91.10 45.90Q91.29 46.06 91.44 46.44L91.44 46.44Q91.98 47.97 92.56 49.44Q93.15 50.92 93.88 52.54L93.88 52.54L93.96 52.54Q94.24 51.98 94.55 51.18Q94.86 50.38 95.15 49.48Q95.45 48.58 95.71 47.65Q95.97 46.72 96.17 45.88L96.17 45.88Q96.30 45.82 96.44 45.78Q96.58 45.73 96.78 45.73L96.78 45.73Q97.09 45.73 97.29 45.89Q97.48 46.04 97.48 46.35L97.48 46.35Q97.48 46.71 97.23 47.66Q96.98 48.61 96.58 49.80Q96.17 50.99 95.65 52.24Q95.13 53.49 94.59 54.46L94.59 54.46Q93.74 55.99 93.06 56.81Q92.39 57.63 91.81 57.63L91.81 57.63Q91.40 57.63 91.17 57.42Q90.95 57.20 90.90 56.91L90.90 56.91Q91.18 56.66 91.54 56.26Q91.90 55.87 92.26 55.41Q92.62 54.95 92.95 54.46Q93.27 53.98 93.49 53.53L93.49 53.53Q93.18 53.44 92.92 53.21Q92.66 52.99 92.34 52.36Z"></path></svg>